<svg width="384" height="384" viewBox="0 0 384 384" fill="none" xmlns="http://www.w3.org/2000/svg">
<g id="icon">
<rect width="128" height="128" fill="#2F3338" transform="scale(3)"/>
<g id="Path Copy 2 + Rectangle 88 Copy Copy Copy Copy Copy Copy Copy Copy Copy Copy Copy Copy.1">
<mask id="mask0" mask-type="alpha" maskUnits="userSpaceOnUse" x="117" y="48" width="150" height="210">
<path id="Mask" fill-rule="evenodd" clip-rule="evenodd" d="M0 43.7726C0 30.2291 0 7.89468 0 7.89468C0 7.89468 15.9033 15.1152 25.0064 0C34.729 14.4435 50 7.89468 50 7.89468C50 7.89468 50 30.2291 50 43.7726C50 57.3161 24.9997 69.7314 24.9997 69.7314C24.9997 69.7314 0 57.3161 0 43.7726Z" transform="translate(117 48) scale(3)" fill="white"/>
</mask>
<g mask="url(#mask0)">
<path id="Mask_2" fill-rule="evenodd" clip-rule="evenodd" d="M0 43.7726C0 30.2291 0 7.89468 0 7.89468C0 7.89468 15.9033 15.1152 25.0064 0C34.729 14.4435 50 7.89468 50 7.89468C50 7.89468 50 30.2291 50 43.7726C50 57.3161 24.9997 69.7314 24.9997 69.7314C24.9997 69.7314 0 57.3161 0 43.7726Z" transform="translate(117 48) scale(3)" fill="#F5005A"/>
<path id="Rectangle 88" fill-rule="evenodd" clip-rule="evenodd" d="M0 0H25V73.1131H0V0Z" transform="translate(267 46.4978) scale(-3 3)" fill="#C20047"/>
<path id="Mask Copy 16" opacity="0.9" fill-rule="evenodd" clip-rule="evenodd" d="M18 25.9769L6.87539 34.0527L11.16 21.0343L0 13.007L13.7726 13.0369L18 0L22.2273 13.0369L36 13.007L24.84 21.0343L29.1246 34.0527L18 25.9769Z" transform="translate(138 96.8379) scale(3)" fill="white"/>
</g>
</g>
<g id="ConsentForAds" transform="translate(21 282) scale(3)">
<path d="M8.6941 3.31783C8.39632 2.92506 8.00814 2.64083 7.52957 2.46512C7.05099 2.27907 6.58306 2.18605 6.12575 2.18605C5.54083 2.18605 5.00908 2.28941 4.5305 2.49612C4.05193 2.70284 3.63716 2.98708 3.28621 3.34884C2.94589 3.71059 2.68002 4.13437 2.48859 4.62015C2.30779 5.10594 2.21739 5.63307 2.21739 6.20155C2.21739 6.80103 2.30779 7.34884 2.48859 7.84496C2.66938 8.34109 2.92462 8.77003 3.25431 9.13178C3.59462 9.4832 3.99875 9.75711 4.46669 9.95349C4.93463 10.1499 5.46106 10.2481 6.04599 10.2481C6.65218 10.2481 7.18925 10.1344 7.65719 9.90698C8.12513 9.66925 8.50267 9.35917 8.78981 8.97674L10.401 10.0775C9.90117 10.6873 9.28966 11.1628 8.56648 11.5039C7.8433 11.8346 6.99782 12 6.03004 12C5.14733 12 4.33376 11.8605 3.58931 11.5814C2.85549 11.292 2.22271 10.8941 1.69096 10.3876C1.15921 9.8708 0.744449 9.26098 0.446669 8.55814C0.14889 7.84496 0 7.05943 0 6.20155C0 5.323 0.154207 4.5323 0.462622 3.82946C0.781671 3.11628 1.21239 2.51163 1.75477 2.0155C2.30779 1.51938 2.95653 1.13695 3.70097 0.868217C4.44542 0.599483 5.25368 0.465116 6.12575 0.465116C6.48734 0.465116 6.86488 0.501292 7.25838 0.573643C7.65187 0.635659 8.02941 0.739018 8.391 0.883721C8.75259 1.01809 9.09291 1.18863 9.41196 1.39535C9.73101 1.60207 10.0022 1.85013 10.2255 2.13954L8.6941 3.31783Z" fill="white"/>
<path d="M11.0801 7.96899C11.0801 7.37984 11.1865 6.84755 11.3992 6.37209C11.6225 5.88631 11.9203 5.47287 12.2925 5.13178C12.6647 4.7907 13.1061 4.52713 13.6166 4.34109C14.127 4.15504 14.6694 4.06202 15.2437 4.06202C15.818 4.06202 16.3604 4.15504 16.8709 4.34109C17.3813 4.52713 17.8227 4.7907 18.1949 5.13178C18.5671 5.47287 18.8596 5.88631 19.0723 6.37209C19.2956 6.84755 19.4073 7.37984 19.4073 7.96899C19.4073 8.55814 19.2956 9.09561 19.0723 9.5814C18.8596 10.0672 18.5671 10.4858 18.1949 10.8372C17.8227 11.1783 17.3813 11.447 16.8709 11.6434C16.3604 11.8398 15.818 11.938 15.2437 11.938C14.6694 11.938 14.127 11.8398 13.6166 11.6434C13.1061 11.447 12.6647 11.1783 12.2925 10.8372C11.9203 10.4858 11.6225 10.0672 11.3992 9.5814C11.1865 9.09561 11.0801 8.55814 11.0801 7.96899ZM13.0263 7.96899C13.0263 8.2584 13.0689 8.5478 13.1539 8.83721C13.2497 9.12661 13.3879 9.38501 13.5687 9.6124C13.7495 9.83979 13.9781 10.0258 14.2547 10.1705C14.5312 10.3152 14.8609 10.3876 15.2437 10.3876C15.6266 10.3876 15.9563 10.3152 16.2328 10.1705C16.5093 10.0258 16.7379 9.83979 16.9187 9.6124C17.0995 9.38501 17.2325 9.12661 17.3175 8.83721C17.4132 8.5478 17.4611 8.2584 17.4611 7.96899C17.4611 7.67959 17.4132 7.39535 17.3175 7.11628C17.2325 6.82687 17.0995 6.56848 16.9187 6.34109C16.7379 6.1137 16.5093 5.93282 16.2328 5.79845C15.9563 5.65375 15.6266 5.5814 15.2437 5.5814C14.8609 5.5814 14.5312 5.65375 14.2547 5.79845C13.9781 5.93282 13.7495 6.1137 13.5687 6.34109C13.3879 6.56848 13.2497 6.82687 13.1539 7.11628C13.0689 7.39535 13.0263 7.67959 13.0263 7.96899Z" fill="white"/>
<path d="M21.4229 4.27907H23.2415V5.47287H23.2734C23.4436 5.10077 23.736 4.77519 24.1508 4.49612C24.5762 4.20672 25.076 4.06202 25.6503 4.06202C26.1502 4.06202 26.5756 4.14987 26.9265 4.32558C27.2881 4.49096 27.5806 4.71318 27.8039 4.99225C28.0379 5.27132 28.208 5.59173 28.3144 5.95349C28.4207 6.31525 28.4739 6.68734 28.4739 7.06977V11.7209H26.5596V7.5969C26.5596 7.37985 26.5437 7.15245 26.5118 6.91473C26.4799 6.677 26.4107 6.46512 26.3044 6.27907C26.198 6.08269 26.0491 5.92248 25.8577 5.79845C25.6769 5.67442 25.4323 5.6124 25.1239 5.6124C24.8155 5.6124 24.5496 5.67442 24.3263 5.79845C24.1029 5.91214 23.9168 6.06202 23.7679 6.24806C23.6297 6.43411 23.5233 6.65116 23.4489 6.89922C23.3744 7.13695 23.3372 7.37984 23.3372 7.62791V11.7209H21.4229V4.27907Z" fill="white"/>
<path d="M35.0628 6.26357C34.8926 6.04651 34.6587 5.86046 34.3609 5.70543C34.0631 5.54005 33.7387 5.45736 33.3878 5.45736C33.0794 5.45736 32.7975 5.51938 32.5423 5.64341C32.2871 5.76744 32.1594 5.97416 32.1594 6.26357C32.1594 6.55297 32.2977 6.75969 32.5742 6.88372C32.8614 6.99742 33.2761 7.11628 33.8185 7.24031C34.1056 7.30233 34.3928 7.38501 34.6799 7.48837C34.9777 7.59173 35.2436 7.73127 35.4776 7.90698C35.7222 8.07235 35.9189 8.28424 36.0678 8.54264C36.2167 8.7907 36.2911 9.09561 36.2911 9.45736C36.2911 9.91214 36.2007 10.2997 36.0199 10.6202C35.8498 10.9302 35.6158 11.1835 35.318 11.3798C35.0309 11.5762 34.6906 11.7158 34.2971 11.7984C33.9142 11.8915 33.5154 11.938 33.1006 11.938C32.5051 11.938 31.9255 11.8346 31.3618 11.6279C30.7982 11.4109 30.3302 11.1059 29.958 10.7132L31.2182 9.56589C31.4309 9.83463 31.7075 10.0568 32.0478 10.2326C32.3881 10.4083 32.7656 10.4961 33.1804 10.4961C33.3187 10.4961 33.4569 10.4806 33.5952 10.4496C33.7441 10.4186 33.877 10.3721 33.994 10.3101C34.1216 10.2377 34.2226 10.1447 34.2971 10.031C34.3715 9.91731 34.4087 9.77778 34.4087 9.6124C34.4087 9.30233 34.2599 9.0801 33.9621 8.94574C33.6749 8.81137 33.2389 8.677 32.654 8.54264C32.3668 8.48062 32.085 8.4031 31.8085 8.31008C31.5426 8.20672 31.3033 8.07752 31.0906 7.92248C30.8779 7.75711 30.7078 7.55556 30.5801 7.31783C30.4525 7.0801 30.3887 6.78553 30.3887 6.43411C30.3887 6.02067 30.4738 5.66408 30.644 5.36434C30.8248 5.0646 31.0587 4.82171 31.3459 4.63566C31.633 4.43928 31.9574 4.29457 32.319 4.20155C32.6806 4.10853 33.0528 4.06202 33.4356 4.06202C33.9887 4.06202 34.5257 4.15504 35.0468 4.34109C35.5786 4.52713 35.9987 4.81137 36.3071 5.1938L35.0628 6.26357Z" fill="white"/>
<path d="M43.507 7.25581C43.507 7.01809 43.4698 6.7907 43.3953 6.57364C43.3315 6.35659 43.2252 6.16537 43.0763 6C42.9274 5.83463 42.736 5.70543 42.502 5.6124C42.2787 5.50904 42.0128 5.45736 41.7044 5.45736C41.1301 5.45736 40.6409 5.62791 40.2368 5.96899C39.8433 6.29974 39.6252 6.72868 39.5827 7.25581H43.507ZM45.4213 8.09302C45.4213 8.17571 45.4213 8.2584 45.4213 8.34109C45.4213 8.42377 45.416 8.50646 45.4054 8.58915H39.5827C39.604 8.85788 39.6731 9.10594 39.7901 9.33333C39.9177 9.55039 40.0825 9.7416 40.2846 9.90698C40.4867 10.062 40.7153 10.186 40.9706 10.2791C41.2258 10.3721 41.4917 10.4186 41.7682 10.4186C42.2468 10.4186 42.6509 10.3359 42.9806 10.1705C43.3103 9.99483 43.5815 9.75711 43.7942 9.45736L45.0704 10.4496C44.3153 11.4419 43.2199 11.938 41.7841 11.938C41.1886 11.938 40.6409 11.8501 40.141 11.6744C39.6412 11.4884 39.2052 11.23 38.8329 10.8992C38.4713 10.5685 38.1842 10.1654 37.9715 9.68992C37.7694 9.20413 37.6684 8.65633 37.6684 8.04651C37.6684 7.44703 37.7694 6.90439 37.9715 6.4186C38.1842 5.92248 38.4713 5.50388 38.8329 5.16279C39.1945 4.81137 39.6199 4.54264 40.1091 4.35659C40.609 4.16021 41.146 4.06202 41.7203 4.06202C42.2521 4.06202 42.7413 4.14987 43.188 4.32558C43.6453 4.49096 44.0388 4.74419 44.3684 5.08527C44.6981 5.41602 44.9534 5.83463 45.1342 6.34109C45.3256 6.83721 45.4213 7.42119 45.4213 8.09302Z" fill="white"/>
<path d="M47.4348 4.27907H49.2534V5.47287H49.2853C49.4555 5.10077 49.7479 4.77519 50.1627 4.49612C50.5881 4.20672 51.0879 4.06202 51.6622 4.06202C52.1621 4.06202 52.5875 4.14987 52.9384 4.32558C53.3 4.49096 53.5925 4.71318 53.8158 4.99225C54.0498 5.27132 54.2199 5.59173 54.3263 5.95349C54.4326 6.31525 54.4858 6.68734 54.4858 7.06977V11.7209H52.5715V7.5969C52.5715 7.37985 52.5556 7.15245 52.5237 6.91473C52.4917 6.677 52.4226 6.46512 52.3163 6.27907C52.2099 6.08269 52.061 5.92248 51.8696 5.79845C51.6888 5.67442 51.4442 5.6124 51.1358 5.6124C50.8274 5.6124 50.5615 5.67442 50.3382 5.79845C50.1148 5.91214 49.9287 6.06202 49.7798 6.24806C49.6416 6.43411 49.5352 6.65116 49.4608 6.89922C49.3863 7.13695 49.3491 7.37984 49.3491 7.62791V11.7209H47.4348V4.27907Z" fill="white"/>
<path d="M55.7785 5.76744V4.27907H57.1185V2.12403H59.0009V4.27907H60.9152V5.76744H59.0009V9.22481C59.0009 9.55556 59.0593 9.82946 59.1763 10.0465C59.304 10.2636 59.5805 10.3721 60.0059 10.3721C60.1335 10.3721 60.2717 10.3618 60.4206 10.3411C60.5695 10.3101 60.7025 10.2687 60.8194 10.2171L60.8832 11.6744C60.7131 11.7364 60.511 11.7829 60.2771 11.814C60.0431 11.8553 59.8197 11.876 59.607 11.876C59.0966 11.876 58.6818 11.8088 58.3628 11.6744C58.0437 11.5297 57.7885 11.3385 57.597 11.1008C57.4162 10.8527 57.2886 10.5736 57.2142 10.2636C57.1504 9.94315 57.1185 9.60207 57.1185 9.24031V5.76744H55.7785Z" fill="white"/>
<path d="M62.5558 0.744186H69.846V2.44961H64.5658V5.45736H69.5429V7.10077H64.5658V11.7209H62.5558V0.744186Z" fill="white"/>
<path d="M70.5542 7.96899C70.5542 7.37984 70.6605 6.84755 70.8732 6.37209C71.0966 5.88631 71.3943 5.47287 71.7666 5.13178C72.1388 4.7907 72.5802 4.52713 73.0906 4.34109C73.6011 4.15504 74.1435 4.06202 74.7178 4.06202C75.2921 4.06202 75.8345 4.15504 76.3449 4.34109C76.8554 4.52713 77.2968 4.7907 77.669 5.13178C78.0412 5.47287 78.3337 5.88631 78.5464 6.37209C78.7697 6.84755 78.8814 7.37984 78.8814 7.96899C78.8814 8.55814 78.7697 9.09561 78.5464 9.5814C78.3337 10.0672 78.0412 10.4858 77.669 10.8372C77.2968 11.1783 76.8554 11.447 76.3449 11.6434C75.8345 11.8398 75.2921 11.938 74.7178 11.938C74.1435 11.938 73.6011 11.8398 73.0906 11.6434C72.5802 11.447 72.1388 11.1783 71.7666 10.8372C71.3943 10.4858 71.0966 10.0672 70.8732 9.5814C70.6605 9.09561 70.5542 8.55814 70.5542 7.96899ZM72.5004 7.96899C72.5004 8.2584 72.5429 8.5478 72.628 8.83721C72.7237 9.12661 72.862 9.38501 73.0428 9.6124C73.2236 9.83979 73.4522 10.0258 73.7287 10.1705C74.0052 10.3152 74.3349 10.3876 74.7178 10.3876C75.1006 10.3876 75.4303 10.3152 75.7068 10.1705C75.9833 10.0258 76.212 9.83979 76.3928 9.6124C76.5736 9.38501 76.7065 9.12661 76.7916 8.83721C76.8873 8.5478 76.9352 8.2584 76.9352 7.96899C76.9352 7.67959 76.8873 7.39535 76.7916 7.11628C76.7065 6.82687 76.5736 6.56848 76.3928 6.34109C76.212 6.1137 75.9833 5.93282 75.7068 5.79845C75.4303 5.65375 75.1006 5.5814 74.7178 5.5814C74.3349 5.5814 74.0052 5.65375 73.7287 5.79845C73.4522 5.93282 73.2236 6.1137 73.0428 6.34109C72.862 6.56848 72.7237 6.82687 72.628 7.11628C72.5429 7.39535 72.5004 7.67959 72.5004 7.96899Z" fill="white"/>
<path d="M80.897 4.27907H82.7315V5.51938H82.7634C82.9761 5.08527 83.2739 4.73385 83.6568 4.46512C84.0396 4.19638 84.4863 4.06202 84.9968 4.06202C85.0712 4.06202 85.151 4.06718 85.2361 4.07752C85.3212 4.07752 85.3956 4.08786 85.4594 4.10853V5.81395C85.3318 5.78295 85.2201 5.76227 85.1244 5.75194C85.0393 5.7416 84.9542 5.73643 84.8692 5.73643C84.4331 5.73643 84.0822 5.81395 83.8163 5.96899C83.5504 6.12403 83.343 6.31008 83.1942 6.52713C83.0453 6.74419 82.9442 6.96641 82.8911 7.1938C82.8379 7.42119 82.8113 7.60207 82.8113 7.73643V11.7209H80.897V4.27907Z" fill="white"/>
<path d="M90.5045 0.744186H92.2433L97.1088 11.7209H94.8117L93.7588 9.2093H88.8614L87.8404 11.7209H85.5911L90.5045 0.744186ZM93.0569 7.53488L91.3181 3.06977L89.5474 7.53488H93.0569Z" fill="white"/>
<path d="M106.075 11.7209H104.256V10.6047H104.224C103.959 11.0388 103.586 11.3695 103.108 11.5969C102.64 11.8243 102.135 11.938 101.592 11.938C101.007 11.938 100.481 11.8346 100.013 11.6279C99.5557 11.4109 99.1622 11.1266 98.8326 10.7752C98.5135 10.4134 98.2636 9.99483 98.0828 9.51938C97.9126 9.03359 97.8276 8.5168 97.8276 7.96899C97.8276 7.42119 97.918 6.90956 98.0987 6.43411C98.2795 5.95866 98.5348 5.54522 98.8645 5.1938C99.1942 4.84238 99.5876 4.56848 100.045 4.37209C100.502 4.16537 101.002 4.06202 101.544 4.06202C101.895 4.06202 102.209 4.10336 102.486 4.18605C102.762 4.2584 103.001 4.35142 103.204 4.46512C103.416 4.57881 103.597 4.70284 103.746 4.83721C103.895 4.97158 104.017 5.10078 104.113 5.22481H104.161V0H106.075V11.7209ZM99.7738 7.96899C99.7738 8.2584 99.8163 8.5478 99.9014 8.83721C99.9971 9.12661 100.135 9.38501 100.316 9.6124C100.497 9.83979 100.726 10.0258 101.002 10.1705C101.279 10.3152 101.603 10.3876 101.975 10.3876C102.326 10.3876 102.64 10.3204 102.916 10.186C103.193 10.0413 103.427 9.8553 103.618 9.62791C103.82 9.40052 103.969 9.14729 104.065 8.86822C104.171 8.57881 104.224 8.28941 104.224 8C104.224 7.71059 104.171 7.42119 104.065 7.13178C103.969 6.84238 103.82 6.58398 103.618 6.35659C103.427 6.1292 103.193 5.94315 102.916 5.79845C102.64 5.65375 102.326 5.5814 101.975 5.5814C101.603 5.5814 101.279 5.65375 101.002 5.79845C100.726 5.93282 100.497 6.1137 100.316 6.34109C100.135 6.56848 99.9971 6.82687 99.9014 7.11628C99.8163 7.39535 99.7738 7.67959 99.7738 7.96899Z" fill="white"/>
<path d="M112.756 6.26357C112.586 6.04651 112.352 5.86046 112.054 5.70543C111.756 5.54005 111.432 5.45736 111.081 5.45736C110.772 5.45736 110.49 5.51938 110.235 5.64341C109.98 5.76744 109.852 5.97416 109.852 6.26357C109.852 6.55297 109.991 6.75969 110.267 6.88372C110.554 6.99742 110.969 7.11628 111.511 7.24031C111.799 7.30233 112.086 7.38501 112.373 7.48837C112.671 7.59173 112.937 7.73127 113.17 7.90698C113.415 8.07235 113.612 8.28424 113.761 8.54264C113.91 8.7907 113.984 9.09561 113.984 9.45736C113.984 9.91214 113.894 10.2997 113.713 10.6202C113.543 10.9302 113.309 11.1835 113.011 11.3798C112.724 11.5762 112.383 11.7158 111.99 11.7984C111.607 11.8915 111.208 11.938 110.794 11.938C110.198 11.938 109.618 11.8346 109.055 11.6279C108.491 11.4109 108.023 11.1059 107.651 10.7132L108.911 9.56589C109.124 9.83463 109.4 10.0568 109.741 10.2326C110.081 10.4083 110.459 10.4961 110.873 10.4961C111.012 10.4961 111.15 10.4806 111.288 10.4496C111.437 10.4186 111.57 10.3721 111.687 10.3101C111.815 10.2377 111.916 10.1447 111.99 10.031C112.064 9.91731 112.102 9.77778 112.102 9.6124C112.102 9.30233 111.953 9.0801 111.655 8.94574C111.368 8.81137 110.932 8.677 110.347 8.54264C110.06 8.48062 109.778 8.4031 109.501 8.31008C109.236 8.20672 108.996 8.07752 108.784 7.92248C108.571 7.75711 108.401 7.55556 108.273 7.31783C108.145 7.0801 108.082 6.78553 108.082 6.43411C108.082 6.02067 108.167 5.66408 108.337 5.36434C108.518 5.0646 108.752 4.82171 109.039 4.63566C109.326 4.43928 109.65 4.29457 110.012 4.20155C110.373 4.10853 110.746 4.06202 111.129 4.06202C111.682 4.06202 112.219 4.15504 112.74 4.34109C113.272 4.52713 113.692 4.81137 114 5.1938L112.756 6.26357Z" fill="white"/>
</g>
</g>
</svg>
